<svg xmlns="http://www.w3.org/2000/svg" viewBox="0 0 64 64"><g id="Layer_73" data-name="Layer 73"><path d="M32,3A28.69,28.69,0,0,0,19.84,5.68c-9.57-8.39-22.44,4.42-14.1,14C-3.41,38.42,11.16,61.33,32,61,70.47,59.41,70.46,4.59,32,3ZM29.57,53.78c-.41-11.87-8.9-21.47-19.48-22,0-.63,0-1.25.1-1.86H20.88a3.1,3.1,0,0,0,.3.57L28.9,42.12a3.75,3.75,0,0,0,6.2,0h0l7.72-11.66a3.86,3.86,0,0,0,.3-.57h10.7q.09.91.09,1.86c-10.58.56-19.07,10.16-19.48,22A21.94,21.94,0,0,1,29.57,53.78Zm-2-.32A22,22,0,0,1,10.16,33.78C19.51,34.38,27,42.87,27.54,53.46Zm13.61-24.1L33.43,41a1.77,1.77,0,0,1-2.86,0L22.85,29.36a1.73,1.73,0,0,1,1.43-2.67H39.72A1.73,1.73,0,0,1,41.15,29.36Zm12.69,4.42A22,22,0,0,1,36.46,53.46C37,42.87,44.49,34.38,53.84,33.78ZM43.39,27.89a3.72,3.72,0,0,0-3.67-3.2H24.28a3.72,3.72,0,0,0-3.67,3.2H10.47a21.75,21.75,0,0,1,1.6-5A10,10,0,0,0,23,12C35.6,6,51.25,14.41,53.53,27.89ZM13.07,5a8,8,0,0,1,8,8C20.64,23.53,5.49,23.53,5.1,13A8,8,0,0,1,13.07,5ZM32,59C12.84,59.3-.72,38.47,7.3,21.09a9.94,9.94,0,0,0,2.76,1.39c-7,15.39,5,33.7,21.94,33.44A24,24,0,0,0,55.92,32c.35-16.8-18.07-28.89-33.33-22a9.76,9.76,0,0,0-1.37-2.76C38.58-.66,59.3,12.89,59,32A27,27,0,0,1,32,59Z" id="id_101" style="fill: rgb(249, 177, 0);"></path><path d="M10.76,16.77a1,1,0,0,0,.74.37,1,1,0,0,0,.76-.33l6.09-6.62a1,1,0,0,0-1.47-1.35l-5.31,5.78L9.68,12.33a1,1,0,0,0-1.54,1.28Z" id="id_102" style="fill: rgb(249, 177, 0);"></path></g></svg>