<svg xmlns="http://www.w3.org/2000/svg" viewBox="0 0 64 64"><g id="Layer_39" data-name="Layer 39"><path d="M28.66,20.32a1,1,0,0,0,2,0,2.27,2.27,0,0,0-4.53,0,1,1,0,0,0,2,0C28.13,20,28.66,20,28.66,20.32Z" id="id_101" style="fill: rgb(249, 177, 0);"></path><path d="M34.34,21.32a1,1,0,0,0,1-1c0-.29.53-.29.53,0a1,1,0,0,0,2,0,2.27,2.27,0,1,0-4.53,0A1,1,0,0,0,34.34,21.32Z" id="id_102" style="fill: rgb(249, 177, 0);"></path><path d="M29.74,24a2.26,2.26,0,0,0,4.52,0,1,1,0,0,0-2,0c0,.29-.52.29-.52,0A1,1,0,0,0,29.74,24Z" id="id_103" style="fill: rgb(249, 177, 0);"></path><path d="M61,58.49a1,1,0,0,0-1-.9H54.42l-2.2-3.81L54.42,50c.18,0,6.11.13,6-.13a1,1,0,0,0,.36-1.42,9.59,9.59,0,0,0-7.42-4.21l-2.79-8.06a8.59,8.59,0,0,0-8.29-5.84H36.82V27.86a8.81,8.81,0,0,0,4.28-5.44h2.11a2.9,2.9,0,0,0,2.9-2.9V18a2.91,2.91,0,0,0-2.29-2.84C45.17,6.48,39.22,3.1,32.6,3a1,1,0,0,0-1,.79,12.55,12.55,0,0,0-.22,1.8c-7.14-.37-10.77,5.46-11.75,9.62a2.35,2.35,0,0,0-1.77,2.28v2.58a2.35,2.35,0,0,0,1.7,2.25v3.09a1,1,0,0,0,.51.87c.32.12,3.23,1.93,3.52,1.81a1,1,0,0,0,.49-1.88l-2.52-1.39V22.43h1.3a8.75,8.75,0,0,0,4.29,5.43v2.45H21.67a8.57,8.57,0,0,0-8.27,5.8l-2.81,8.1a9.56,9.56,0,0,0-7.41,4.21,1,1,0,0,0,.35,1.42c-.08.25,5.89.09,6.06.13l2.2,3.81-2.2,3.81H4a1,1,0,0,0-.82,1.56c3.9,6,13.36,5.45,16.49-1H44.33c3.14,6.44,12.6,7,16.5,1A1.11,1.11,0,0,0,61,58.49ZM31,38.17,28.82,34.9,31,36.35Zm2-1.82,2.18-1.45L33,38.17ZM44.11,18v1.48a.9.9,0,0,1-.9.9H41.38V17.13h1.83A.9.9,0,0,1,44.11,18ZM33.46,5c5.64.39,9.2,3.26,8.46,9.31C36.27,14,32.72,11.09,33.46,5ZM26.58,8.59a10.12,10.12,0,0,1,4.86-1A9.53,9.53,0,0,0,33,12.31C30.47,15.93,25.32,16,21.77,15.1,22.28,13.49,23.64,10.16,26.58,8.59ZM22.63,20.43H20.24a.36.36,0,0,1-.35-.36V17.49a.35.35,0,0,1,.35-.36h1.44l.95.18v3.12Zm2-.05V17.54c3.49.3,7.47-.74,9.79-3.76a11.93,11.93,0,0,0,5,2.22v4.37c.15,5-6.27,8.34-10.79,6l-.05,0A6.72,6.72,0,0,1,24.63,20.38ZM32,29.12a10.07,10.07,0,0,0,2.82-.41V31.3a1,1,0,0,0,.73,1L32,34.62l-3.55-2.36a1,1,0,0,0,.73-1V28.71A9.81,9.81,0,0,0,32,29.12ZM15.3,36.73a6.57,6.57,0,0,1,6.37-4.42h3L31.16,42a1,1,0,0,0,1.68,0l6.47-9.72h3a6.57,6.57,0,0,1,6.38,4.46l2.62,7.54a9.54,9.54,0,0,0-7,5.09h-2.7V44.52a1,1,0,0,0-1-1H23.37a1,1,0,0,0-1,1V49.4h-2.7a9.56,9.56,0,0,0-7-5.1ZM39.63,49.4H24.37V45.52H39.63Zm6.23,7.37a1,1,0,0,0-.92-.61H19.06a1,1,0,0,0-.92.61A7.65,7.65,0,0,1,6.25,59.59h3.91a1,1,0,0,0,.87-.5l2.78-4.81a1,1,0,0,0,0-1L11,48.47a1,1,0,0,0-.87-.5H6.25a7.65,7.65,0,0,1,11.89,2.82h0a1.06,1.06,0,0,0,.93.61H44.94a1,1,0,0,0,.92-.61A7.63,7.63,0,0,1,57.76,48H53.84a1,1,0,0,0-.86.5L50.2,53.28a1,1,0,0,0,0,1L53,59.09a1,1,0,0,0,.86.5h3.92A7.66,7.66,0,0,1,45.86,56.77Z" id="id_104" style="fill: rgb(249, 177, 0);"></path></g></svg>