<svg xmlns="http://www.w3.org/2000/svg" viewBox="0 0 64 64"><g id="Layer_29" data-name="Layer 29"><path d="M42.11,42.11c6.78-6.7,1.84-18.41-7.59-18.34-9.41-.11-14.38,11.66-7.61,18.34A10.76,10.76,0,0,0,42.11,42.11ZM40.7,40.7a8.72,8.72,0,0,1-5.19,2.49V41.73a6.23,6.23,0,0,1,6.22-6.22H43.2A8.71,8.71,0,0,1,40.7,40.7Zm-6.19-2.89a8.29,8.29,0,0,0-3.29-3.3,8.27,8.27,0,0,0,3.29-3.29,8.29,8.29,0,0,0,3.3,3.29A8.32,8.32,0,0,0,34.51,37.81Zm8.69-4.3H41.73a6.23,6.23,0,0,1-6.22-6.22V25.83A8.79,8.79,0,0,1,43.2,33.51ZM28.33,28.33a8.73,8.73,0,0,1,5.18-2.5v1.46a6.23,6.23,0,0,1-6.22,6.22H25.83A8.73,8.73,0,0,1,28.33,28.33Zm-2.5,7.18h1.46a6.23,6.23,0,0,1,6.22,6.22v1.46A8.8,8.8,0,0,1,25.83,35.51Z" id="id_101" style="fill: rgb(249, 177, 0);"></path><path d="M42.12,19.44a1.24,1.24,0,1,0-.88-2.12A1.25,1.25,0,0,0,42.12,19.44Z" id="id_102" style="fill: rgb(249, 177, 0);"></path><path d="M36.77,21.06a1.24,1.24,0,1,0-.88-2.12A1.25,1.25,0,0,0,36.77,21.06Z" id="id_103" style="fill: rgb(249, 177, 0);"></path><path d="M47,18.6a1.24,1.24,0,1,0-.88-2.12A1.25,1.25,0,0,0,47,18.6Z" id="id_104" style="fill: rgb(249, 177, 0);"></path><path d="M51.43,29.6a1.25,1.25,0,0,0,0-2.49A1.25,1.25,0,0,0,51.43,29.6Z" id="id_105" style="fill: rgb(249, 177, 0);"></path><path d="M46.5,27a1.25,1.25,0,0,0,0-2.49A1.25,1.25,0,0,0,46.5,27Z" id="id_106" style="fill: rgb(249, 177, 0);"></path><path d="M55.48,32.47a1.25,1.25,0,0,0,0-2.49A1.25,1.25,0,0,0,55.48,32.47Z" id="id_107" style="fill: rgb(249, 177, 0);"></path><path d="M48.33,37.65a1.24,1.24,0,0,0,1.75-1.76A1.24,1.24,0,0,0,48.33,37.65Z" id="id_108" style="fill: rgb(249, 177, 0);"></path><path d="M37.8,54.23a1.25,1.25,0,0,0,0,2.49A1.25,1.25,0,0,0,37.8,54.23Z" id="id_109" style="fill: rgb(249, 177, 0);"></path><path d="M26,49.94a1.25,1.25,0,0,0,1.77,1.76A1.25,1.25,0,0,0,26,49.94Z" id="id_110" style="fill: rgb(249, 177, 0);"></path><path d="M31.37,48.33a1.24,1.24,0,0,0,1.77,1.75A1.24,1.24,0,0,0,31.37,48.33Z" id="id_111" style="fill: rgb(249, 177, 0);"></path><path d="M21.14,50.78a1.24,1.24,0,0,0,1.76,1.76A1.24,1.24,0,0,0,21.14,50.78Z" id="id_112" style="fill: rgb(249, 177, 0);"></path><path d="M17.6,39.42a1.25,1.25,0,0,0,0,2.49A1.25,1.25,0,0,0,17.6,39.42Z" id="id_113" style="fill: rgb(249, 177, 0);"></path><path d="M22.53,42.06a1.25,1.25,0,0,0,0,2.49A1.25,1.25,0,0,0,22.53,42.06Z" id="id_114" style="fill: rgb(249, 177, 0);"></path><path d="M13.55,36.56a1.25,1.25,0,0,0,0,2.49A1.25,1.25,0,0,0,13.55,36.56Z" id="id_115" style="fill: rgb(249, 177, 0);"></path><path d="M20.7,31.37a1.25,1.25,0,0,0-1.76,1.77A1.25,1.25,0,0,0,20.7,31.37Z" id="id_116" style="fill: rgb(249, 177, 0);"></path><path d="M25.72,23.77a1.25,1.25,0,0,0,0-2.49A1.25,1.25,0,0,0,25.72,23.77Z" id="id_117" style="fill: rgb(249, 177, 0);"></path><path d="M9.73,27.93A3,3,0,0,0,14,23.69h0A3,3,0,0,0,9.73,27.93Zm1.42-2.83a1,1,0,0,1,1.41,1.41A1,1,0,0,1,11.15,25.1Z" id="id_118" style="fill: rgb(249, 177, 0);"></path><path d="M25.81,14.85a3,3,0,1,0-2.12-5.12A3,3,0,0,0,25.81,14.85Zm-.71-3.7a1,1,0,0,1,1.41,1.41A1,1,0,0,1,25.1,11.15Z" id="id_119" style="fill: rgb(249, 177, 0);"></path><path d="M5.18,42.51c1.12-.28.69-1.48.51-2.28a1,1,0,0,0-1.17-.79,1,1,0,0,0-.79,1.18C3.87,41.44,4,42.76,5.18,42.51Z" id="id_120" style="fill: rgb(249, 177, 0);"></path><path d="M6.83,44.38A1,1,0,0,0,5,45.05a31.55,31.55,0,0,0,8.22,12.46A1,1,0,0,0,14.53,56,29.53,29.53,0,0,1,6.83,44.38Z" id="id_121" style="fill: rgb(249, 177, 0);"></path><path d="M43.52,6.54a29.26,29.26,0,0,1,14.53,10.4,1,1,0,0,0,1.6-1.2A31.21,31.21,0,0,0,44.13,4.64,1,1,0,0,0,43.52,6.54Z" id="id_122" style="fill: rgb(249, 177, 0);"></path><path d="M39.17,5.5c.51.07,1,.21,1.54.27a1,1,0,0,0,.2-2c-.87-.15-2.33-.71-2.58.57A1,1,0,0,0,39.17,5.5Z" id="id_123" style="fill: rgb(249, 177, 0);"></path><path d="M58.88,44.87C66.31,28.21,53.66,8.43,35.51,8.05V4a1,1,0,0,0-1-1A31.51,31.51,0,0,0,19.06,7.05h0a1.26,1.26,0,0,0-.5.57A17.64,17.64,0,0,1,7.62,18.56a1.26,1.26,0,0,0-.57.5h0A31.51,31.51,0,0,0,3,34.51a1,1,0,0,0,1,1H8.05c.38,18.17,20.21,30.82,36.87,23.35C54.28,65.87,65.91,54.21,58.88,44.87ZM20.31,8.65A29.58,29.58,0,0,1,33.51,5V15A19.59,19.59,0,0,0,15,33.51H5a29.58,29.58,0,0,1,3.62-13.2A19.65,19.65,0,0,0,20.31,8.65ZM10.05,35.51h5.88a1,1,0,0,0,1-1A17.6,17.6,0,0,1,34.51,16.93a1,1,0,0,0,1-1V10.05c16.35.33,28,18.06,21.86,33.25-9.46-7.45-21.49,4.62-14,14.05C28.14,63.57,10.38,51.88,10.05,35.51ZM51,59a8,8,0,0,1-8-8C43.46,40.43,58.6,40.44,59,51A8,8,0,0,1,51,59Z" id="id_124" style="fill: rgb(249, 177, 0);"></path><path d="M54.84,46.86l-5.31,5.78-1.89-2.28a1,1,0,0,0-1.54,1.27l2.62,3.17a1,1,0,0,0,1.51,0l6.08-6.62A1,1,0,0,0,54.84,46.86Z" id="id_125" style="fill: rgb(249, 177, 0);"></path></g></svg>