<svg xmlns="http://www.w3.org/2000/svg" viewBox="0 0 64 64"><g id="Layer_67" data-name="Layer 67"><path d="M60.16,16.31a1,1,0,0,0,.84-1v-4a1,1,0,0,0-1-1H53.63a1.08,1.08,0,0,0-1,1.32l-.75-3.56a6.77,6.77,0,0,0-6.57-5H18.69a6.78,6.78,0,0,0-6.58,5l-.73,3.5a1.09,1.09,0,0,0-1-1.31H4a1,1,0,0,0-1,1v4a1,1,0,0,0,.84,1l6.32,1.05-.19.92a7.46,7.46,0,0,0-4.11,6.06l-.53,6.07a.11.11,0,0,1,0,.08v6c0,.88-.15,2.65.29,3.45H4a1,1,0,0,0-1,1v4a1,1,0,0,0,1,1H7.1l19.22,3.44L7,52.79a1,1,0,0,0-.69.51h0a.94.94,0,0,0-.11.32.31.31,0,0,0,0,.19c0,.06,0,.12,0,.17a1,1,0,0,0,.09.26l0,0a1,1,0,0,0,.72.49L23.93,56.9,7.06,59a1,1,0,0,0,.25,2L32,57.91,56.69,61a1,1,0,0,0,.25-2L40.07,56.9l16.87-2.11a1,1,0,0,0,.72-.49l0,0a1,1,0,0,0,.09-.26c0-.05,0-.11,0-.17a.31.31,0,0,0,0-.19,1.21,1.21,0,0,0-.11-.32h0a1,1,0,0,0-.69-.51L37.68,49.34,56.9,45.9H60a1,1,0,0,0,1-1v-4a1,1,0,0,0-1-1H58.38c.44-.79.26-2.57.29-3.45v-6a.11.11,0,0,1,0-.08l-.53-6.07A7.46,7.46,0,0,0,54,18.28l-.19-.92Zm-5.53-4H59v2.19l-4.37.72ZM9.38,15.2,5,14.48V12.29H9.38ZM50.24,53.62,32,55.89,13.76,53.62,32,50.35ZM32,48.32,18.46,45.9H45.54ZM59,43.9H5v-2H59ZM17.89,37.47H46.11a5.6,5.6,0,0,0,.29,2.45H17.6A5.62,5.62,0,0,0,17.89,37.47Zm20.8-2H25.31V33.36H38.69Zm17.45-11,.53,6v8a1.37,1.37,0,0,1-1.36,1.37H49.47a1.37,1.37,0,0,1-1.36-1.37V37.47h2.27a1,1,0,0,0,0-2H40.69V32.36a1,1,0,0,0-1-1H24.31a1,1,0,0,0-1,1v3.11H13.62a1,1,0,1,0,0,2h2.27v1.08a1.37,1.37,0,0,1-1.36,1.37H8.69a1.37,1.37,0,0,1-1.36-1.37v-8l.53-6a5.48,5.48,0,0,1,5.49-5h37.3A5.48,5.48,0,0,1,56.14,24.51Zm-42.79-7H12.18l1.88-8.91A4.76,4.76,0,0,1,18.69,5.1H45.31a4.75,4.75,0,0,1,4.62,3.42l1.89,9H13.35Z" id="id_104" style="fill: rgb(249, 177, 0);"></path><path d="M41.75,25.7c-.93,2.13,1.21,4.52,3.38,4.46h6.45a3.74,3.74,0,1,0-.42-7.47l-7.6,1.54A2.5,2.5,0,0,0,41.75,25.7Zm2.2.49,7.55-1.53c2.18,0,2.2,3.46.08,3.5H45.13a1.59,1.59,0,0,1-1.36-.77C43.48,27,43.36,26.37,44,26.19Z" id="id_105" style="fill: rgb(249, 177, 0);"></path><path d="M21,24.23l-7.6-1.54h-.11c-5-.26-5.21,7.33-.3,7.48h6.45C22.73,30.26,24.71,25.29,21,24.23Zm0,2.9a1.7,1.7,0,0,1-1.51,1H13c-2.13,0-2.11-3.54.08-3.5l7.54,1.53A.63.63,0,0,1,20.92,27.13Z" id="id_106" style="fill: rgb(249, 177, 0);"></path></g></svg>