<svg xmlns="http://www.w3.org/2000/svg" viewBox="0 0 64 64"><g id="Layer_16" data-name="Layer 16"><path d="M42.67,37.46c5.19-5.29,5-14.79-.36-19.87l-.06-.06A14.33,14.33,0,0,0,32,13.35H32a14.34,14.34,0,0,0-10,4.18s-.05,0-.06.06c-5.37,5.08-5.56,14.59-.37,19.88,0,0,.06.1.12.12,5.34,6,15.54,6,20.88,0C42.61,37.57,42.64,37.51,42.67,37.46Zm-10.56-5.9a14.4,14.4,0,0,0-9.73,3.81,12.34,12.34,0,0,1-2.6-6.64h1.87a1,1,0,0,0,0-2H19.78a12.35,12.35,0,0,1,2.9-7L24,21a1,1,0,0,0,1.42-1.42L24.1,18.3A12.33,12.33,0,0,1,31,15.4v1.86a1,1,0,1,0,2,0V15.39a12.27,12.27,0,0,1,7.12,2.91L38.8,19.62A1,1,0,0,0,40.22,21l1.32-1.33a12.43,12.43,0,0,1,2.91,7H42.58a1,1,0,0,0,0,2h1.87a12.43,12.43,0,0,1-2.61,6.64A14.4,14.4,0,0,0,32.11,31.56Zm-8.37,5.27a12.41,12.41,0,0,1,16.74,0C36.16,41.14,28.07,41.14,23.74,36.83Z" id="id_101" style="fill: rgb(249, 177, 0);"></path><path d="M33.09,21.24a1,1,0,0,0-2,0l-1.37,6.24a2.41,2.41,0,1,0,4.7,0Zm-.66,7a.41.41,0,0,1-.71-.34l.39-1.79C32.21,26.78,32.67,28.1,32.43,28.25Z" id="id_102" style="fill: rgb(249, 177, 0);"></path><path d="M34.39,35.83H29.83a1,1,0,0,0,0,2h4.56A1,1,0,0,0,34.39,35.83Z" id="id_103" style="fill: rgb(249, 177, 0);"></path><path d="M58,53.8c4.13-3.83,4.13-11.4,0-15.23a.1.1,0,0,0,0,0,10.84,10.84,0,0,0-11-2.6c6.31-11-2.12-25.37-14.87-25.19C19.32,10.56,10.88,25,17.31,36A10.84,10.84,0,0,0,6,38.53a.1.1,0,0,0,0,0C1.86,42.4,1.86,50,6,53.8a.12.12,0,0,0,0,.05c3.83,4.13,11.4,4.13,15.23,0a.1.1,0,0,0,0-.05,10.84,10.84,0,0,0,2.5-11.27,17,17,0,0,0,16.32.16A10.84,10.84,0,0,0,42.69,53.8a.1.1,0,0,0,0,.05C46.56,58,54.13,58,58,53.85A.12.12,0,0,0,58,53.8Zm-1.53-2.9a1,1,0,0,0-1.42,1.42l.76.75a8.68,8.68,0,0,1-4.47,1.86V53.85a1,1,0,0,0-2,0v1.08a8.64,8.64,0,0,1-4.47-1.86l.75-.75a1,1,0,0,0-1.41-1.42l-.76.76a8.76,8.76,0,0,1-1.86-4.47h1.08a1,1,0,1,0,0-2H41.6a8.8,8.8,0,0,1,1.86-4.48l.76.76a1,1,0,0,0,1.41,0,1,1,0,0,0,0-1.41l-.75-.76a8.73,8.73,0,0,1,4.47-1.86v1.08a1,1,0,0,0,2,0V37.44a8.76,8.76,0,0,1,4.47,1.86l-.76.76a1,1,0,0,0,0,1.41,1,1,0,0,0,1.42,0l.76-.76a8.78,8.78,0,0,1,1.85,4.48H58a1,1,0,0,0,0,2h1.07a8.75,8.75,0,0,1-1.85,4.47ZM21.32,47.19H22.4a8.76,8.76,0,0,1-1.86,4.47l-.76-.76a1,1,0,0,0-1.41,1.42l.75.75a8.64,8.64,0,0,1-4.47,1.86V53.85a1,1,0,0,0-2,0v1.08a8.68,8.68,0,0,1-4.47-1.86l.76-.75A1,1,0,1,0,7.52,50.9l-.76.76a8.75,8.75,0,0,1-1.85-4.47H6a1,1,0,1,0,0-2H4.91a8.78,8.78,0,0,1,1.85-4.48l.76.76a1,1,0,0,0,1.42,0,1,1,0,0,0,0-1.41l-.76-.76a8.76,8.76,0,0,1,4.47-1.86v1.08a1,1,0,0,0,2,0V37.44a8.73,8.73,0,0,1,4.47,1.86l-.75.76a1,1,0,0,0,0,1.41,1,1,0,0,0,1.41,0l.76-.76a8.8,8.8,0,0,1,1.86,4.48H21.32A1,1,0,0,0,21.32,47.19ZM17.13,27.73a15,15,0,0,1,15-15c19.88.83,19.88,29.15,0,30A15,15,0,0,1,17.13,27.73Z" id="id_104" style="fill: rgb(249, 177, 0);"></path><path d="M51.64,43.38l-2.92,2.31A1.69,1.69,0,0,0,48.07,47c0,1.76,2.57,2.63,3.39.94l1.69-3.32A1,1,0,0,0,51.64,43.38Z" id="id_105" style="fill: rgb(249, 177, 0);"></path><path d="M15.78,45.33l-3.06-2.12a1,1,0,0,0-1.44,1.32l1.89,3.22C14.67,50.08,18,47,15.78,45.33Z" id="id_106" style="fill: rgb(249, 177, 0);"></path><path d="M59.29,37.39A1,1,0,0,0,60.71,36c-.61-.62-1.56-1.72-2.39-.79S58.7,36.8,59.29,37.39Z" id="id_107" style="fill: rgb(249, 177, 0);"></path><path d="M51.88,33.75a12.37,12.37,0,0,1,4.39,1.38,1,1,0,0,0,1.36-.41c.95-1.84-4.28-2.77-5.51-3A1,1,0,0,0,51.88,33.75Z" id="id_108" style="fill: rgb(249, 177, 0);"></path><path d="M7.37,35.19a18.64,18.64,0,0,1,4.75-1.44A1,1,0,0,0,13,32.64c-.25-2-5,.13-6.08.67A1,1,0,0,0,7.37,35.19Z" id="id_109" style="fill: rgb(249, 177, 0);"></path><path d="M4,37.69c.75,0,1.15-.86,1.75-1.24A1,1,0,0,0,5.89,35c-.9-1-1.94.33-2.6,1A1,1,0,0,0,4,37.69Z" id="id_110" style="fill: rgb(249, 177, 0);"></path><path d="M48.18,18.11a1,1,0,0,0,1.71-1c-.41-.73-1-1.92-2-1.27S47.74,17.43,48.18,18.11Z" id="id_111" style="fill: rgb(249, 177, 0);"></path><path d="M32.11,9a18.55,18.55,0,0,1,13.58,5.83,1,1,0,0,0,1.45-1.37A20.51,20.51,0,0,0,32.11,7,1,1,0,0,0,32.11,9Z" id="id_112" style="fill: rgb(249, 177, 0);"></path></g></svg>