<?xml version="1.0" encoding="utf-8"?>
<!-- Svg Vector Icons : http://www.onlinewebfonts.com/icon -->
<!DOCTYPE svg PUBLIC "-//W3C//DTD SVG 1.1//EN" "http://www.w3.org/Graphics/SVG/1.1/DTD/svg11.dtd">
<svg version="1.1" xmlns="http://www.w3.org/2000/svg" xmlns:xlink="http://www.w3.org/1999/xlink" x="0px" y="0px" viewBox="0 0 256 256" enable-background="new 0 0 256 256" xml:space="preserve">
<metadata> Svg Vector Icons : http://www.onlinewebfonts.com/icon </metadata>
<g><g><g><path fill="#000000" d="M46.5,9.6c-5.1,0.7-12.1,3.9-16.2,7.6c-8.1,7.2-11.9,19.6-9.2,30.1C24,58.6,31.8,66.6,43.3,69.9c2.6,0.7,6.7,0.8,50.5,1.1l47.7,0.2l-61.7,62c-34,34.1-62.7,63.3-63.8,64.8c-4,5.5-5.9,11-5.9,17.8c0,8.8,2.8,15.8,8.8,21.9c4,3.9,7.9,6.3,13.1,7.9c2.8,0.8,4.5,1,8.8,1c6.7,0,11.3-1.4,16.3-4.8c2.6-1.7,18.5-17.4,65.3-64.3l61.9-62l0.1,47.2c0.2,52.7,0,49,3.5,56.2c2.3,4.7,8.2,10.7,13,13.1c17.7,9.2,38.8-0.3,44.1-19.7c0.7-2.7,0.8-10,0.9-103.2L246,9.2l-99,0C92.5,9.3,47.3,9.5,46.5,9.6z"/></g></g></g>
</svg>